<svg xmlns="http://www.w3.org/2000/svg" width="420" height="119.123" viewBox="0 0 420 119.123">
  <g id="组_924" data-name="组 924" transform="translate(-2156.114 -2596.68)">
    <g id="组_913" data-name="组 913" transform="translate(2156.114 2596.68)">
      <g id="组_905" data-name="组 905" transform="translate(101.719 1.126)">
        <path id="路径_10588" data-name="路径 10588" d="M2483.011,2631.371q-2.648-6.757-5.687-16.665.619,7.938.62,19.76v47.178h-12.837v-81.52h19.536l18.8,47.572a121.977,121.977,0,0,1,5.517,16.664,162.994,162.994,0,0,1,5.743-16.664l19.367-47.572h18.86v81.52h-13.906v-47.178q0-8.162.788-19.76-3.321,11.2-6.473,19.029l-19.705,48.022h-10.7Z" transform="translate(-2465.107 -2600.125)" fill="#c8102e"/>
      </g>
      <g id="组_906" data-name="组 906" transform="translate(200.632 1.07)">
        <path id="路径_10589" data-name="路径 10589" d="M2820.7,2659.686h-32.653l-7.995,21.844H2765.7l31.978-81.576h13.569l32.709,81.576h-15.089Zm-28.543-11.091h24.377l-8.726-23.364q-1.8-4.842-3.546-10.7-1.578,5.18-3.435,10.584Z" transform="translate(-2765.7 -2599.953)" fill="#c8102e"/>
      </g>
      <g id="组_907" data-name="组 907" transform="translate(282.85 0)">
        <path id="路径_10590" data-name="路径 10590" d="M3034.337,2675.47a33.766,33.766,0,0,1-13.849-14.271q-4.842-9.29-4.841-21.957,0-13.736,5.574-23.335a35.859,35.859,0,0,1,15.172-14.413,47.364,47.364,0,0,1,21.534-4.813,56.866,56.866,0,0,1,13.427,1.548,58.093,58.093,0,0,1,11.907,4.251l-3.546,10.7q-11.093-5.292-21.168-5.292a29.622,29.622,0,0,0-14.892,3.631,24.673,24.673,0,0,0-9.935,10.669q-3.547,7.038-3.548,17a41.033,41.033,0,0,0,2.731,15.482,22.856,22.856,0,0,0,8.613,10.7q5.883,3.943,14.834,3.941a49.223,49.223,0,0,0,8.107-.675,42.436,42.436,0,0,0,7.6-1.97v-16.5H3053.2v-10.809h32.372V2673.7a72.253,72.253,0,0,1-14.666,5.011,68.912,68.912,0,0,1-15.285,1.745Q3043.344,2680.452,3034.337,2675.47Z" transform="translate(-3015.647 -2596.68)" fill="#c8102e"/>
      </g>
      <g id="组_908" data-name="组 908" transform="translate(371.584 1.126)">
        <path id="路径_10591" data-name="路径 10591" d="M3285.744,2600.125h48.023l-1.351,11.6h-32.6v22.463h30.738v10.866h-30.738v24.884h34.341l-1.181,11.71h-47.235Z" transform="translate(-3285.744 -2600.125)" fill="#c8102e"/>
      </g>
      <g id="组_912" data-name="组 912" transform="translate(0 1.098)">
        <g id="组_909" data-name="组 909" transform="translate(49.773)">
          <path id="路径_10592" data-name="路径 10592" d="M2319.265,2628.775l-10.857-16.561,8.11-12.175h22.161Z" transform="translate(-2308.407 -2600.039)" fill="#c8102e"/>
        </g>
        <g id="组_910" data-name="组 910" transform="translate(49.711 52.952)">
          <path id="路径_10593" data-name="路径 10593" d="M2319.073,2762.059l-10.858,16.561,8.11,12.176h22.162Z" transform="translate(-2308.216 -2762.059)" fill="#c8102e"/>
        </g>
        <g id="组_911" data-name="组 911" transform="translate(0 0.001)">
          <path id="路径_10594" data-name="路径 10594" d="M2156.115,2600.041h22.63l26.927,39.151-27.878,42.537h-21.538l28.608-41.635Z" transform="translate(-2156.115 -2600.041)" fill="#c8102e"/>
        </g>
      </g>
    </g>
    <g id="组_916" data-name="组 916" transform="translate(2308.17 2694.443)">
      <path id="路径_10616" data-name="路径 10616" d="M2623.155,2902.712l.893-.357h-5.183v-6.435h10.724v6.435h-4.915q.088.268.268.715.178.536.268.8h5.809v1.251H2617.7v-1.251h5.988Zm-5.452,11.439a19.373,19.373,0,0,0,3.128-3.127l1.162.8a18.007,18.007,0,0,1-3.218,3.306Zm1.43-7.775h10.188v4.111h-4.2v3.217a1.891,1.891,0,0,1-2.145,2.234h-2.055a.7.7,0,0,0-.09-.268,3.976,3.976,0,0,0-.268-1.251q1.251.088,1.876.089,1.341.088,1.251-.983v-3.039h-4.558Zm1.162-9.294v1.519h7.775v-1.519Zm0,2.592v1.52h7.775v-1.52Zm.358,7.954v1.609h7.149v-1.609Zm5.541,4.29.983-.983a10.169,10.169,0,0,0,1.072.894q1.161.984,1.7,1.519l-1.072.983a17.17,17.17,0,0,0-1.34-1.162Q2626.729,2912.364,2626.193,2911.917Zm2.77,3.039a22.958,22.958,0,0,0,8.758-7.6l1.341.893a25.191,25.191,0,0,1-9.026,7.954,8.233,8.233,0,0,1-.536-.626Q2629.141,2915.133,2628.963,2914.955Zm1.341-14.12a21.405,21.405,0,0,0,5.9-5.541l1.341.983a32.639,32.639,0,0,1-6.077,5.809,8.538,8.538,0,0,1-.626-.715Q2630.482,2901.016,2630.3,2900.835Zm.179,6.345a25.569,25.569,0,0,0,6.7-6.435l1.34,1.073a37.535,37.535,0,0,1-6.881,6.613c-.12-.119-.268-.268-.447-.447A3.466,3.466,0,0,0,2630.483,2907.181Z" transform="translate(-2617.703 -2894.848)" fill="#c8102e"/>
      <path id="路径_10617" data-name="路径 10617" d="M2713.57,2904.473a36.17,36.17,0,0,0,4.647-10.456l1.7.358q-1.072,2.949-2.145,5.63v15.1h-1.52v-11.975q-.18.268-.536.8-.536.984-1.43,2.323Q2713.926,2905.368,2713.57,2904.473Zm5.183-4.826a19.478,19.478,0,0,0,5.541-5.719l1.787.357a5.2,5.2,0,0,0-.536.715q-.358.448-.536.715H2731v1.251l-1.966,2.055h4.647v4.647H2726.8a2.955,2.955,0,0,1-.358.447,10.2,10.2,0,0,1,1.877,2.681,46.29,46.29,0,0,0,4.379-2.86l.983,1.162q-.268.181-.894.536-1.162.8-1.787,1.162a10.386,10.386,0,0,0,3.932,5.719,9.809,9.809,0,0,0-1.251,1.073,13.846,13.846,0,0,1-3.932-5.988,5.889,5.889,0,0,1-.894.536,13.762,13.762,0,0,1,.357,3.307q.088,3.4-3.217,3.486h-2.234q-.18-.716-.447-1.609,1.25.088,2.5.089,1.965.088,1.877-2.055a14.682,14.682,0,0,0-.089-1.609,26.008,26.008,0,0,1-7.686,4.647q-.448-.626-.983-1.341a21.4,21.4,0,0,0,8.311-4.825,6.784,6.784,0,0,0-.447-1.162,21.533,21.533,0,0,1-6.97,4.29,7.073,7.073,0,0,0-.983-1.251,21.461,21.461,0,0,0,7.239-4.2,1.94,1.94,0,0,0-.357-.447,1.025,1.025,0,0,0-.357-.357,27.1,27.1,0,0,1-5.541,3.128c-.12-.179-.268-.387-.447-.626q-.358-.446-.536-.625,4.557-1.7,6.077-3.307h-4.111V2900a5.2,5.2,0,0,1-.536.447q-.448.358-.625.536A12.769,12.769,0,0,1,2718.753,2899.647Zm10.188-2.592h-5.094a19.675,19.675,0,0,1-1.877,1.966h5.184Zm-6.613,3.306v1.966h3.664a5.573,5.573,0,0,0,.715-1.966Zm9.92,0h-4.021a15.331,15.331,0,0,1-.626,1.966h4.647Z" transform="translate(-2682.238 -2893.928)" fill="#c8102e"/>
      <path id="路径_10618" data-name="路径 10618" d="M2818.842,2894.2h1.966q-.09,2.5-.179,4.826h9.652q-.268,7.238-.358,10.724,0,5.272-4.558,4.915h-3.843v-.179a6.934,6.934,0,0,0-.357-1.7h4.111q2.859.268,2.771-3.4.178-3.218.357-8.579h-7.775q-.09,10.277-8.758,14.388-.626-.716-1.341-1.519,8.49-4.109,8.133-12.869h-7.149v-1.787h7.239q0-1.341.089-3.754Z" transform="translate(-2747.51 -2894.112)" fill="#c8102e"/>
      <path id="路径_10619" data-name="路径 10619" d="M2909.264,2905.783h16.354v5.987h-7.507v1.341h8.311v1.072h-8.311v1.162h10.009v1.162h-21.448v-1.162h10.009v-1.162h-8.312v-1.072h8.312v-1.341h-7.417Zm-2.413-2.234h21.18v1.162h-21.18Zm2.592-6.613h16v5.63h-16Zm1.34,9.92v1.43h5.9v-1.43Zm0,2.413v1.43h5.9v-1.43Zm.089-11.26v1.162h13.047v-1.162Zm0,2.234v1.161h13.047v-1.161Zm13.226,6.613h-5.987v1.43h5.987Zm-5.987,2.413v1.43h5.987v-1.43Z" transform="translate(-2812.229 -2895.953)" fill="#c8102e"/>
    </g>
  </g>
</svg>
