<svg id="图层_1" data-name="图层 1" xmlns="http://www.w3.org/2000/svg" viewBox="0 0 10.80851 7.89113"><defs><style>.cls-1{fill:#fff;}</style></defs><title>未标题-1</title><path class="cls-1" d="M4.234,4.23486.69843,7.77048A.40913.40913,0,0,1,0,7.48118V.41A.40913.40913,0,0,1,.69843.12065L4.234,3.65627A.40911.40911,0,0,1,4.234,4.23486Z"/><path class="cls-1" d="M10.11008,7.77048,6.57447,4.23486a.40911.40911,0,0,1,0-.57859L10.11008.12065A.40913.40913,0,0,1,10.80851.41V7.48118A.40913.40913,0,0,1,10.11008,7.77048Z"/><rect class="cls-1" x="2.73537" y="3.52228" width="5.33777" height="0.84657"/></svg>